<svg width="150" height="100" viewBox="0 0 150 100" fill="none" xmlns="http://www.w3.org/2000/svg">
<rect width="150" height="100" fill="white"/>
<g clip-path="url(#clip0_3003_817)">
<path d="M45.2921 72.1024L48.3792 77.4346C49.0206 78.5572 49.9427 79.4392 51.0252 80.0806L62.0504 60.9971H40C40 62.2399 40.3207 63.4827 40.9622 64.6053L45.2921 72.1024Z" fill="#0066DA"/>
<path d="M75 38.5458L63.9748 19.4622C62.8923 20.1036 61.9702 20.9856 61.3288 22.1082L40.9622 57.3888C40.3207 58.5115 40 59.7543 40 60.9971H62.0504L75 38.5458Z" fill="#00AC47"/>
<path d="M74.9999 38.5458L86.025 19.4622C84.9425 18.8207 83.6997 18.5 82.4168 18.5H67.5829C66.2999 18.5 65.0571 18.8608 63.9746 19.4622L74.9999 38.5458Z" fill="#00832D"/>
<path d="M87.9498 60.9973H62.0506L51.0254 80.0809C52.1079 80.7224 53.3507 81.0431 54.6337 81.0431H95.3667C96.6497 81.0431 97.8925 80.6823 98.975 80.0809L87.9498 60.9973Z" fill="#2684FC"/>
<path d="M98.9754 80.0809C100.058 79.4395 100.98 78.5574 101.621 77.4349L102.904 75.2298L109.038 64.6055C109.68 63.483 110.001 62.2401 110.001 60.9973H87.9902L98.9754 80.0809Z" fill="#EA4335"/>
<path d="M98.8545 39.7486L88.6713 22.1082C88.0298 20.9856 87.1077 20.1036 86.0252 19.4622L75 38.5458L87.9496 60.9971H109.96C109.96 59.7543 109.639 58.5115 108.998 57.3888L98.8545 39.7486Z" fill="#FFBA00"/>
</g>
<defs>
<clipPath id="clip0_3003_817">
<rect width="70" height="70" fill="white" transform="translate(40 15)"/>
</clipPath>
</defs>
</svg>
