<svg width="150" height="100" viewBox="0 0 150 100" fill="none" xmlns="http://www.w3.org/2000/svg">
<rect width="150" height="100" fill="white"/>
<g clip-path="url(#clip0_3003_1251)">
<path d="M88.8255 41.1689H106.907C108.615 41.1689 110 42.5537 110 44.262V60.7315C110 67.0097 104.91 72.0992 98.632 72.0992H98.5783C92.3001 72.1001 87.2099 67.0113 87.209 60.7331C87.209 60.7326 87.209 60.732 87.209 60.7315V42.7855C87.209 41.8927 87.9327 41.1689 88.8255 41.1689Z" fill="#5059C9"/>
<path d="M101.046 37.9129C105.092 37.9129 108.372 34.6331 108.372 30.5873C108.372 26.5415 105.092 23.2617 101.046 23.2617C97.0005 23.2617 93.7207 26.5415 93.7207 30.5873C93.7207 34.6331 97.0005 37.9129 101.046 37.9129Z" fill="#5059C9"/>
<path d="M78.2557 37.9128C84.0997 37.9128 88.8371 33.1754 88.8371 27.3314C88.8371 21.4875 84.0997 16.75 78.2557 16.75C72.4118 16.75 67.6743 21.4875 67.6743 27.3314C67.6743 33.1754 72.4118 37.9128 78.2557 37.9128Z" fill="#7B83EB"/>
<path d="M92.3644 41.1689H62.5183C60.8304 41.2107 59.4952 42.6115 59.5344 44.2994V63.0839C59.2987 73.2131 67.3124 81.6188 77.4414 81.8666C87.5703 81.6188 95.584 73.2131 95.3484 63.0839V44.2994C95.3875 42.6115 94.0523 41.2107 92.3644 41.1689Z" fill="#7B83EB"/>
<path opacity="0.1" d="M79.0695 41.1689V67.4922C79.0613 68.6993 78.3299 69.7838 77.2136 70.2434C76.8582 70.3937 76.4763 70.4712 76.0904 70.4713H60.9671C60.7555 69.9341 60.5601 69.3969 60.3973 68.8434C59.8275 66.9754 59.5367 65.0335 59.5345 63.0806V44.2945C59.4954 42.6093 60.8284 41.2107 62.5136 41.1689H79.0695Z" fill="black"/>
<path opacity="0.2" d="M77.4416 41.1689V69.1201C77.4415 69.506 77.364 69.888 77.2136 70.2434C76.754 71.3596 75.6696 72.0911 74.4625 72.0992H61.7322C61.4555 71.562 61.195 71.0248 60.9671 70.4713C60.7392 69.9178 60.5601 69.3969 60.3973 68.8434C59.8275 66.9754 59.5367 65.0335 59.5345 63.0806V44.2945C59.4954 42.6093 60.8284 41.2107 62.5136 41.1689H77.4416Z" fill="black"/>
<path opacity="0.2" d="M77.4415 41.1689V65.8643C77.4291 67.5045 76.1026 68.831 74.4625 68.8434H60.3973C59.8275 66.9754 59.5367 65.0335 59.5345 63.0806V44.2945C59.4954 42.6093 60.8284 41.2107 62.5136 41.1689H77.4415Z" fill="black"/>
<path opacity="0.2" d="M75.8136 41.1689V65.8643C75.8012 67.5045 74.4747 68.831 72.8345 68.8434H60.3973C59.8275 66.9754 59.5367 65.0335 59.5345 63.0806V44.2945C59.4954 42.6093 60.8284 41.2107 62.5136 41.1689H75.8136Z" fill="black"/>
<path opacity="0.1" d="M79.0696 32.7522V37.8801C78.7929 37.8964 78.5324 37.9127 78.2557 37.9127C77.9789 37.9127 77.7185 37.8964 77.4417 37.8801C76.8922 37.8437 76.3472 37.7565 75.8138 37.6197C72.5173 36.839 69.7938 34.5271 68.4882 31.4011C68.2636 30.8761 68.0892 30.331 67.9673 29.7732H76.0905C77.7333 29.7794 79.0634 31.1095 79.0696 32.7522Z" fill="black"/>
<path opacity="0.2" d="M77.4422 34.3802V37.8802C76.8928 37.8437 76.3478 37.7565 75.8144 37.6197C72.5178 36.839 69.7944 34.5271 68.4888 31.4011H74.4632C76.1059 31.4073 77.436 32.7375 77.4422 34.3802Z" fill="black"/>
<path opacity="0.2" d="M77.4422 34.3802V37.8802C76.8928 37.8437 76.3478 37.7565 75.8144 37.6197C72.5178 36.839 69.7944 34.5271 68.4888 31.4011H74.4632C76.1059 31.4073 77.436 32.7375 77.4422 34.3802Z" fill="black"/>
<path opacity="0.2" d="M75.8144 34.3802V37.6197C72.5178 36.839 69.7944 34.5271 68.4888 31.4011H72.8353C74.478 31.4074 75.8081 32.7375 75.8144 34.3802Z" fill="black"/>
<path d="M42.9839 31.4011H72.83C74.478 31.4011 75.8139 32.7371 75.8139 34.3851V64.2311C75.8139 65.8791 74.4779 67.215 72.83 67.215H42.9839C41.3359 67.215 40 65.8791 40 64.2311V34.3851C40 32.7371 41.336 31.4011 42.9839 31.4011Z" fill="url(#paint0_linear_3003_1251)"/>
<path d="M65.7603 42.7607H59.7939V59.0073H55.9928V42.7607H50.0542V39.6091H65.7603V42.7607Z" fill="white"/>
</g>
<defs>
<linearGradient id="paint0_linear_3003_1251" x1="46.2216" y1="29.0695" x2="69.5924" y2="69.5467" gradientUnits="userSpaceOnUse">
<stop stop-color="#5A62C3"/>
<stop offset="0.5" stop-color="#4D55BD"/>
<stop offset="1" stop-color="#3940AB"/>
</linearGradient>
<clipPath id="clip0_3003_1251">
<rect width="70" height="65.1163" fill="white" transform="translate(40 16.75)"/>
</clipPath>
</defs>
</svg>
