<svg width="150" height="100" viewBox="0 0 150 100" fill="none" xmlns="http://www.w3.org/2000/svg">
<rect width="150" height="100" fill="white"/>
<g clip-path="url(#clip0_3003_1249)">
<path d="M110 50.9363C110.004 50.389 109.721 49.8796 109.255 49.5933H109.247L109.217 49.5771L84.9614 35.2189C84.8567 35.1482 84.748 35.0835 84.6358 35.0252C83.6993 34.542 82.5868 34.542 81.6502 35.0252C81.5381 35.0835 81.4294 35.1482 81.3246 35.2189L57.0689 49.5771L57.0396 49.5933C56.2983 50.0543 56.071 51.0291 56.532 51.7704C56.6679 51.9888 56.855 52.1708 57.0771 52.3005L81.3329 66.6587C81.438 66.7288 81.5466 66.7935 81.6585 66.8524C82.595 67.3356 83.7075 67.3356 84.6441 66.8524C84.7559 66.7935 84.8645 66.7289 84.9696 66.6587L109.225 52.3005C109.71 52.018 110.006 51.4973 110 50.9363Z" fill="#0A2767"/>
<path d="M59.8959 41.3493H75.8135V55.9402H59.8959V41.3493ZM106.744 26.5174V19.843C106.782 18.1742 105.461 16.79 103.792 16.75H62.4859C60.8171 16.79 59.4963 18.1742 59.5345 19.843V26.5174L83.9531 33.029L106.744 26.5174Z" fill="#0364B8"/>
<path d="M59.5347 26.5173H75.8137V41.1685H59.5347V26.5173Z" fill="#0078D4"/>
<path d="M92.0935 26.5173H75.8145V41.1685L92.0935 55.8196H106.745V41.1685L92.0935 26.5173Z" fill="#28A8EA"/>
<path d="M75.8145 41.1685H92.0935V55.8196H75.8145V41.1685Z" fill="#0078D4"/>
<path d="M75.8145 55.8201H92.0935V70.4712H75.8145V55.8201Z" fill="#0364B8"/>
<path d="M59.896 55.9399H75.8137V69.2041H59.896V55.9399Z" fill="#14447D"/>
<path d="M92.0933 55.8201H106.744V70.4712H92.0933V55.8201Z" fill="#0078D4"/>
<path d="M109.254 52.2107L109.223 52.227L84.9674 65.8688C84.8616 65.9339 84.7541 65.9958 84.6418 66.0511C84.2298 66.2473 83.7824 66.3581 83.3265 66.3767L82.0013 65.6018C81.8894 65.5456 81.7806 65.4831 81.6757 65.4146L57.0944 51.3853H57.083L56.2788 50.936V78.5518C56.2913 80.3943 57.7947 81.878 59.6372 81.8663H106.693C106.721 81.8663 106.746 81.8532 106.775 81.8532C107.164 81.8283 107.548 81.7483 107.914 81.6156C108.073 81.5484 108.226 81.469 108.372 81.3779C108.481 81.316 108.668 81.1809 108.668 81.1809C109.502 80.5639 109.996 79.5893 110 78.5519V50.936C109.999 51.4642 109.714 51.9513 109.254 52.2107Z" fill="url(#paint0_linear_3003_1249)"/>
<path opacity="0.5" d="M108.698 50.8269V52.52L83.3351 69.9825L57.0769 51.3967C57.0769 51.3877 57.0696 51.3804 57.0607 51.3804L54.6514 49.9316V48.7106L55.6444 48.6943L57.7444 49.899L57.7932 49.9153L57.9723 50.0292C57.9723 50.0292 82.6513 64.1106 82.7164 64.1432L83.6606 64.6966C83.742 64.6641 83.8234 64.6315 83.9211 64.599C83.9699 64.5664 108.421 50.8106 108.421 50.8106L108.698 50.8269Z" fill="#0A2767"/>
<path d="M109.255 52.2107L109.224 52.2286L84.9678 65.8704C84.862 65.9355 84.7546 65.9974 84.6422 66.0527C83.7002 66.5129 82.5986 66.5129 81.6567 66.0527C81.5451 65.9975 81.4365 65.9366 81.3311 65.8704L57.0753 52.2286L57.046 52.2107C56.5777 51.9568 56.2842 51.4687 56.2793 50.936V78.5518C56.291 80.394 57.7938 81.8779 59.6359 81.8663C59.6359 81.8663 59.636 81.8663 59.636 81.8663H106.643C108.486 81.878 109.988 80.3941 110 78.552C110 78.5519 110 78.5519 110 78.5518V50.936C110 51.4642 109.715 51.9513 109.255 52.2107Z" fill="#1490DF"/>
<path opacity="0.1" d="M85.3207 65.6685L84.9576 65.8719C84.8524 65.9389 84.7438 66.0004 84.6321 66.0559C84.2321 66.2522 83.7972 66.3673 83.3525 66.3945L92.5811 77.308L108.68 81.1873C109.121 80.8541 109.471 80.4159 109.7 79.9126L85.3207 65.6685Z" fill="black"/>
<path opacity="0.05" d="M86.9648 64.7439L84.9576 65.872C84.8524 65.939 84.7438 66.0004 84.6321 66.056C84.2321 66.2523 83.7972 66.3674 83.3525 66.3946L87.6762 78.3157L108.684 81.1825C109.512 80.5611 109.999 79.5867 110 78.5518V78.1952L86.9648 64.7439Z" fill="black"/>
<path d="M59.6816 81.8662H106.639C107.361 81.8699 108.066 81.6417 108.649 81.2151L82.0002 65.6051C81.8882 65.5489 81.7795 65.4864 81.6746 65.4179L57.0932 51.3886H57.0818L56.2793 50.936V78.4574C56.2775 80.3383 57.8007 81.8644 59.6816 81.8662C59.6816 81.8662 59.6816 81.8662 59.6816 81.8662Z" fill="#28A8EA"/>
<path opacity="0.1" d="M79.0695 32.7571V67.4804C79.0666 68.6978 78.3263 69.7921 77.1974 70.2478C76.8477 70.3981 76.4711 70.4757 76.0904 70.4757H56.2788V31.4011H59.5346V29.7732H76.0905C77.735 29.7794 79.0659 31.1125 79.0695 32.7571Z" fill="black"/>
<path opacity="0.2" d="M77.4416 34.3852V69.1084C77.4457 69.5017 77.3623 69.8909 77.1974 70.2479C76.7453 71.3623 75.6651 72.0933 74.4625 72.0989H56.2788V31.4013H74.4625C74.9349 31.3965 75.4004 31.5143 75.8137 31.7431C76.8116 32.2459 77.4412 33.2678 77.4416 34.3852Z" fill="black"/>
<path opacity="0.2" d="M77.4416 34.3852V65.8526C77.4337 67.4965 76.1064 68.8288 74.4626 68.8431H56.2788V31.4013H74.4625C74.9349 31.3965 75.4004 31.5143 75.8137 31.7431C76.8116 32.2459 77.4412 33.2678 77.4416 34.3852Z" fill="black"/>
<path opacity="0.2" d="M75.8137 34.3851V65.8525C75.8119 67.4989 74.481 68.8349 72.8346 68.8429H56.2788V31.4011H72.8346C74.4808 31.402 75.8146 32.7373 75.8136 34.3835C75.8137 34.384 75.8137 34.3845 75.8137 34.3851Z" fill="black"/>
<path d="M42.9839 31.4011H72.83C74.478 31.4011 75.8139 32.7371 75.8139 34.3851V64.2311C75.8139 65.8791 74.478 67.215 72.83 67.215H42.9839C41.3359 67.215 40 65.8791 40 64.2311V34.3851C40 32.7371 41.336 31.4011 42.9839 31.4011Z" fill="url(#paint1_linear_3003_1249)"/>
<path d="M49.3264 43.9163C50.0618 42.3494 51.2489 41.0381 52.7352 40.151C54.3812 39.2086 56.2554 38.7388 58.1513 38.7933C59.9085 38.7552 61.6424 39.2006 63.1636 40.081C64.5939 40.9339 65.7458 42.1837 66.4796 43.6786C67.2788 45.3259 67.677 47.1388 67.642 48.9693C67.6807 50.8824 67.2709 52.778 66.4454 54.5042C65.6942 56.0526 64.5057 57.3469 63.0268 58.2272C61.447 59.1345 59.6487 59.5917 57.8273 59.5491C56.0326 59.5924 54.2605 59.1419 52.7043 58.2468C51.2616 57.3927 50.0952 56.1415 49.3443 54.6426C48.5404 53.0191 48.1374 51.2266 48.169 49.4154C48.1355 47.5186 48.5311 45.6387 49.3264 43.9163ZM52.9599 52.7559C53.352 53.7464 54.0169 54.6055 54.8775 55.2335C55.7541 55.8462 56.8037 56.1623 57.8729 56.1354C59.0114 56.1804 60.1337 55.8536 61.0701 55.2042C61.9198 54.5782 62.5673 53.7168 62.9324 52.7265C63.3405 51.6207 63.542 50.4492 63.5266 49.2705C63.5392 48.0806 63.3498 46.8971 62.9666 45.7705C62.628 44.7534 62.0014 43.8564 61.1629 43.1887C60.25 42.5086 59.1307 42.1636 57.9933 42.2119C56.901 42.1836 55.8279 42.5022 54.928 43.1219C54.0528 43.7525 53.3752 44.6193 52.9745 45.6207C52.0855 47.9163 52.0809 50.4603 52.9615 52.7591L52.9599 52.7559Z" fill="white"/>
<path d="M92.0933 26.5173H106.744V41.1685H92.0933V26.5173Z" fill="#50D9FF"/>
</g>
<defs>
<linearGradient id="paint0_linear_3003_1249" x1="83.1393" y1="50.936" x2="83.1393" y2="81.8663" gradientUnits="userSpaceOnUse">
<stop stop-color="#35B8F1"/>
<stop offset="1" stop-color="#28A8EA"/>
</linearGradient>
<linearGradient id="paint1_linear_3003_1249" x1="46.2216" y1="29.0695" x2="69.5923" y2="69.5467" gradientUnits="userSpaceOnUse">
<stop stop-color="#1784D9"/>
<stop offset="0.5" stop-color="#107AD5"/>
<stop offset="1" stop-color="#0A63C9"/>
</linearGradient>
<clipPath id="clip0_3003_1249">
<rect width="70" height="65.1163" fill="white" transform="translate(40 16.75)"/>
</clipPath>
</defs>
</svg>
