<svg width="150" height="100" viewBox="0 0 150 100" fill="none" xmlns="http://www.w3.org/2000/svg">
<rect width="150" height="100" fill="white"/>
<g clip-path="url(#clip0_3010_587)">
<path d="M69.1358 30.8631C71.3911 28.5178 74.531 27.0633 78.0035 27.0633C82.6197 27.0633 86.6471 29.6323 88.7919 33.4461C90.6557 32.615 92.7187 32.1526 94.8893 32.1526C103.215 32.1526 109.965 38.948 109.965 47.3302C109.965 55.7134 103.215 62.5089 94.8893 62.5089C93.8732 62.5089 92.8801 62.4075 91.9199 62.2136C90.0311 65.576 86.432 67.8479 82.301 67.8479C80.5716 67.8479 78.936 67.4491 77.4796 66.7403C75.5649 71.2351 71.1042 74.3867 65.9053 74.3867C60.4912 74.3867 55.877 70.9676 54.1059 66.1725C53.3318 66.3366 52.5299 66.4222 51.7071 66.4222C45.261 66.4222 40.0352 61.1528 40.0352 54.6516C40.0352 50.295 42.3831 46.4911 45.8716 44.4561C45.1534 42.8066 44.7539 40.9862 44.7539 39.0723C44.7539 31.5959 50.8355 25.5352 58.3364 25.5352C62.7404 25.5352 66.6544 27.625 69.1358 30.8631Z" fill="#00A1E0"/>
<path d="M50.1623 50.8682C50.1185 50.9825 50.1782 51.0064 50.1922 51.0263C50.3237 51.1218 50.4571 51.1904 50.5916 51.2669C51.3049 51.6447 51.9783 51.7551 52.6825 51.7551C54.1171 51.7551 55.0075 50.9935 55.0075 49.7676V49.7437C55.0075 48.6104 54.0025 48.1987 53.0591 47.9015L52.9365 47.8617C52.2253 47.6311 51.6117 47.4323 51.6117 46.965V46.9401C51.6117 46.5404 51.9703 46.2461 52.5261 46.2461C53.1438 46.2461 53.877 46.4509 54.3492 46.7114C54.3492 46.7114 54.4876 46.8009 54.5384 46.6667C54.5663 46.5951 54.8054 45.9528 54.8302 45.8832C54.8571 45.8076 54.8093 45.752 54.7606 45.7222C54.2216 45.395 53.4765 45.1714 52.7055 45.1714L52.5621 45.1724C51.2491 45.1724 50.3326 45.9637 50.3326 47.0981V47.1221C50.3326 48.3181 51.3437 48.7058 52.291 48.9762L52.4434 49.023C53.1339 49.2347 53.7285 49.4167 53.7285 49.9018V49.9257C53.7285 50.3691 53.342 50.6992 52.7184 50.6992C52.4764 50.6992 51.7043 50.6943 50.8706 50.1683C50.7699 50.1096 50.7112 50.0668 50.6335 50.0202C50.5926 49.9943 50.49 49.9496 50.4452 50.0848L50.1623 50.8682Z" fill="white"/>
<path d="M71.1603 50.8682C71.1165 50.9825 71.1763 51.0064 71.1903 51.0263C71.3217 51.1218 71.4552 51.1904 71.5897 51.2669C72.3029 51.6447 72.9764 51.7551 73.6807 51.7551C75.1151 51.7551 76.0057 50.9935 76.0057 49.7676V49.7437C76.0057 48.6104 75.0005 48.1987 74.0572 47.9015L73.9347 47.8617C73.2234 47.6311 72.6098 47.4323 72.6098 46.965V46.9401C72.6098 46.5404 72.9684 46.2461 73.5242 46.2461C74.1418 46.2461 74.875 46.4509 75.3472 46.7114C75.3472 46.7114 75.4857 46.8009 75.5364 46.6667C75.5644 46.5951 75.8034 45.9528 75.8284 45.8832C75.8552 45.8076 75.8075 45.752 75.7586 45.7222C75.2197 45.395 74.4745 45.1714 73.7035 45.1714L73.5601 45.1724C72.2472 45.1724 71.3307 45.9637 71.3307 47.0981V47.1221C71.3307 48.3181 72.3419 48.7058 73.2892 48.9762L73.4416 49.023C74.1319 49.2347 74.7276 49.4167 74.7276 49.9018V49.9257C74.7276 50.3691 74.3401 50.6992 73.7166 50.6992C73.4744 50.6992 72.7024 50.6943 71.8687 50.1683C71.768 50.1096 71.7083 50.0688 71.6325 50.0202C71.6066 50.0032 71.4852 49.9566 71.4433 50.0848L71.1603 50.8682Z" fill="white"/>
<path d="M85.4913 48.4666C85.4913 49.1596 85.3619 49.7054 85.1068 50.0912C84.8548 50.473 84.4733 50.6588 83.9414 50.6588C83.4084 50.6588 83.0288 50.474 82.7808 50.0912C82.5298 49.7064 82.4022 49.1596 82.4022 48.4666C82.4022 47.7747 82.5298 47.2298 82.7808 46.8481C83.0288 46.4702 83.4084 46.2864 83.9414 46.2864C84.4733 46.2864 84.8548 46.4702 85.1078 46.8481C85.3619 47.2298 85.4913 47.7747 85.4913 48.4666ZM86.6887 47.1821C86.5712 46.7855 86.3879 46.4355 86.1438 46.1442C85.8998 45.8519 85.5909 45.6172 85.2243 45.4462C84.8587 45.2762 84.4265 45.1897 83.9414 45.1897C83.4552 45.1897 83.0229 45.2762 82.6573 45.4462C82.2907 45.6172 81.9819 45.8519 81.7369 46.1442C81.4938 46.4364 81.3105 46.7864 81.192 47.1821C81.0754 47.5768 81.0166 48.0082 81.0166 48.4666C81.0166 48.925 81.0754 49.3574 81.192 49.7511C81.3105 50.1468 81.4927 50.4968 81.7378 50.7891C81.9819 51.0814 82.2917 51.3151 82.6573 51.4811C83.0239 51.6471 83.4552 51.7316 83.9414 51.7316C84.4265 51.7316 84.8578 51.6471 85.2243 51.4811C85.5899 51.3151 85.8998 51.0814 86.1438 50.7891C86.3879 50.4978 86.5712 50.1478 86.6887 49.7511C86.8062 49.3564 86.865 48.9239 86.865 48.4666C86.865 48.0092 86.8062 47.5768 86.6887 47.1821Z" fill="white"/>
<path d="M96.5311 50.4744C96.4913 50.3579 96.3787 50.4018 96.3787 50.4018C96.2044 50.4683 96.0191 50.53 95.8219 50.5608C95.6217 50.5916 95.4015 50.6075 95.1655 50.6075C94.5857 50.6075 94.1254 50.4356 93.7957 50.0955C93.465 49.7555 93.2798 49.2056 93.2817 48.462C93.2837 47.785 93.447 47.276 93.7409 46.8882C94.0328 46.5024 94.4771 46.3046 95.0698 46.3046C95.5639 46.3046 95.9404 46.3613 96.3348 46.4855C96.3348 46.4855 96.4295 46.5262 96.4743 46.4031C96.579 46.1127 96.6566 45.905 96.7682 45.5858C96.8 45.4953 96.7224 45.4565 96.6945 45.4455C96.5391 45.3849 96.1725 45.2865 95.8955 45.2447C95.6365 45.205 95.3337 45.1841 94.9971 45.1841C94.494 45.1841 94.0457 45.2696 93.6622 45.4406C93.2798 45.6106 92.9549 45.8453 92.6979 46.1376C92.441 46.4298 92.2457 46.7798 92.1152 47.1755C91.9857 47.5702 91.9199 48.0037 91.9199 48.462C91.9199 49.4532 92.1879 50.2545 92.7169 50.8412C93.2468 51.4298 94.0428 51.729 95.0807 51.729C95.6944 51.729 96.3239 51.6047 96.7762 51.4267C96.7762 51.4267 96.8628 51.385 96.825 51.2846L96.5311 50.4744Z" fill="white"/>
<path d="M98.6221 47.8032C98.6789 47.4184 98.7855 47.0982 98.9499 46.8487C99.1979 46.47 99.5765 46.2622 100.108 46.2622C100.64 46.2622 100.992 46.4709 101.244 46.8487C101.411 47.0982 101.484 47.4324 101.513 47.8032H98.6221ZM102.654 46.9571C102.552 46.5743 102.3 46.1876 102.135 46.0107C101.874 45.7303 101.619 45.5344 101.366 45.425C101.035 45.2839 100.638 45.1904 100.204 45.1904C99.6979 45.1904 99.2388 45.2749 98.8662 45.4499C98.4926 45.6249 98.1788 45.8635 97.9328 46.1607C97.6867 46.4571 97.5014 46.81 97.3839 47.2106C97.2654 47.6094 97.2056 48.0439 97.2056 48.5022C97.2056 48.9685 97.2673 49.4028 97.3899 49.7936C97.5134 50.1873 97.7107 50.5343 97.9777 50.8216C98.2437 51.111 98.5863 51.3377 98.9967 51.4957C99.4042 51.6528 99.8992 51.7343 100.468 51.7333C101.639 51.7294 102.255 51.4689 102.509 51.3287C102.554 51.3039 102.597 51.26 102.543 51.1348L102.278 50.3941C102.238 50.2837 102.126 50.3245 102.126 50.3245C101.836 50.432 101.423 50.6248 100.462 50.6228C99.8335 50.6218 99.3672 50.4369 99.0754 50.1475C98.7755 49.8513 98.6291 49.4159 98.6032 48.8014L102.657 48.8054C102.657 48.8054 102.763 48.8034 102.774 48.7C102.778 48.6563 102.914 47.8689 102.654 46.9571Z" fill="white"/>
<path d="M66.1635 47.8032C66.2214 47.4184 66.327 47.0982 66.4913 46.8487C66.7394 46.47 67.1179 46.2622 67.6499 46.2622C68.1817 46.2622 68.5335 46.4709 68.7864 46.8487C68.9528 47.0982 69.0255 47.4324 69.0544 47.8032H66.1635ZM70.1941 46.9571C70.0924 46.5743 69.8414 46.1876 69.6761 46.0107C69.415 45.7303 69.16 45.5344 68.907 45.425C68.5763 45.2839 68.1798 45.1904 67.7454 45.1904C67.2404 45.1904 66.7801 45.2749 66.4077 45.4499C66.0341 45.6249 65.7203 45.8635 65.4742 46.1607C65.2282 46.4571 65.0429 46.81 64.9254 47.2106C64.8077 47.6094 64.7471 48.0439 64.7471 48.5022C64.7471 48.9685 64.8088 49.4028 64.9313 49.7936C65.0548 50.1873 65.2521 50.5343 65.519 50.8216C65.785 51.111 66.1277 51.3377 66.5381 51.4957C66.9456 51.6528 67.4406 51.7343 68.0094 51.7333C69.1799 51.7294 69.7965 51.4689 70.0506 51.3287C70.0954 51.3039 70.1382 51.26 70.0844 51.1348L69.8205 50.3941C69.7796 50.2837 69.6671 50.3245 69.6671 50.3245C69.3771 50.432 68.9657 50.6248 68.0024 50.6228C67.3749 50.6218 66.9087 50.4369 66.6168 50.1475C66.317 49.8513 66.1705 49.4159 66.1446 48.8014L70.198 48.8054C70.198 48.8054 70.3046 48.8034 70.3155 48.7C70.3196 48.6563 70.455 47.8689 70.1941 46.9571Z" fill="white"/>
<path d="M57.4034 50.4519C57.245 50.3256 57.2232 50.2938 57.1694 50.2123C57.0897 50.088 57.0488 49.9111 57.0488 49.6864C57.0488 49.3304 57.1663 49.075 57.4104 48.9029C57.4074 48.9039 57.7591 48.5997 58.5858 48.6106C59.1666 48.6186 59.6857 48.7041 59.6857 48.7041V50.5434H59.6867C59.6867 50.5434 59.1716 50.6538 58.5918 50.6885C57.7671 50.7383 57.4005 50.4509 57.4034 50.4519ZM59.0163 47.6094C58.8518 47.5975 58.6386 47.5906 58.3837 47.5906C58.036 47.5906 57.7003 47.6343 57.3855 47.7188C57.0687 47.8033 56.7839 47.9356 56.5388 48.1106C56.2927 48.2866 56.0944 48.5112 55.951 48.7777C55.8076 49.0442 55.7349 49.3583 55.7349 49.7103C55.7349 50.0681 55.7966 50.3793 55.9202 50.6339C56.0437 50.8895 56.222 51.1022 56.4491 51.2662C56.6742 51.4303 56.9521 51.5505 57.275 51.6231C57.5927 51.6957 57.9534 51.7325 58.3478 51.7325C58.7632 51.7325 59.1776 51.6988 59.5791 51.6301C59.9765 51.5624 60.4647 51.4641 60.6001 51.4332C60.7346 51.4014 60.884 51.3607 60.884 51.3607C60.9846 51.3359 60.9766 51.2284 60.9766 51.2284L60.9747 47.529C60.9747 46.7176 60.7575 46.1161 60.3302 45.7433C59.9048 45.3715 59.2782 45.1836 58.4683 45.1836C58.1645 45.1836 57.6753 45.2253 57.3826 45.2839C57.3826 45.2839 56.4969 45.455 56.1324 45.7393C56.1324 45.7393 56.0527 45.789 56.0965 45.9004L56.3834 46.6699C56.4193 46.7693 56.5158 46.7355 56.5158 46.7355C56.5158 46.7355 56.5467 46.7236 56.5826 46.7027C57.3625 46.2792 58.3488 46.2921 58.3488 46.2921C58.7871 46.2921 59.1238 46.3796 59.3509 46.5536C59.5721 46.7226 59.6846 46.9782 59.6846 47.5171V47.688C59.3359 47.6383 59.0163 47.6094 59.0163 47.6094Z" fill="white"/>
<path d="M91.7079 45.5249C91.7388 45.4334 91.674 45.3897 91.6471 45.3797C91.5784 45.3528 91.2337 45.2803 90.9677 45.2634C90.4587 45.2326 90.1759 45.3181 89.9228 45.4314C89.6717 45.5448 89.3928 45.7276 89.2375 45.9354V45.4433C89.2375 45.3747 89.1886 45.32 89.1209 45.32H88.0819C88.0142 45.32 87.9653 45.3747 87.9653 45.4433V51.4772C87.9653 51.5448 88.0211 51.6005 88.0889 51.6005H89.1537C89.2215 51.6005 89.2763 51.5448 89.2763 51.4772V48.4628C89.2763 48.0582 89.3211 47.6545 89.4108 47.4009C89.4985 47.1504 89.6179 46.9496 89.7654 46.8054C89.9138 46.6622 90.0822 46.5619 90.2665 46.5051C90.4548 46.4475 90.6629 46.4286 90.8104 46.4286C91.0225 46.4286 91.2557 46.4833 91.2557 46.4833C91.3333 46.4922 91.3772 46.4445 91.4031 46.3739C91.4728 46.189 91.6701 45.6352 91.7079 45.5249Z" fill="white"/>
<path d="M81.7095 42.7282C81.5801 42.6885 81.4624 42.6616 81.309 42.6328C81.1537 42.6049 80.9684 42.5911 80.7583 42.5911C80.0251 42.5911 79.4473 42.7979 79.0419 43.2055C78.6384 43.6111 78.3645 44.2284 78.227 45.0407L78.1772 45.3142H77.2568C77.2568 45.3142 77.1452 45.3101 77.1213 45.4315L76.9709 46.2736C76.96 46.3531 76.9947 46.4039 77.1023 46.4039H77.9979L77.0894 51.4663C77.0187 51.8739 76.937 52.2091 76.8464 52.4635C76.7577 52.714 76.671 52.9019 76.5634 53.0392C76.4599 53.1704 76.3623 53.2679 76.1929 53.3245C76.0534 53.3712 75.892 53.3932 75.7157 53.3932C75.618 53.3932 75.4876 53.3772 75.391 53.3573C75.2953 53.3384 75.2446 53.3175 75.1718 53.2867C75.1718 53.2867 75.0673 53.247 75.0254 53.3514C74.9925 53.4379 74.7535 54.093 74.7245 54.1736C74.6966 54.254 74.7365 54.3168 74.7873 54.3356C74.9069 54.3773 74.9955 54.4052 75.1579 54.444C75.383 54.4967 75.5732 54.4997 75.7515 54.4997C76.1241 54.4997 76.4648 54.447 76.7468 54.3455C77.0296 54.2431 77.2767 54.0652 77.4958 53.8246C77.7319 53.5641 77.8804 53.2917 78.0217 52.9189C78.1622 52.5511 78.2828 52.0936 78.3784 51.5608L79.2918 46.4039H80.6267C80.6267 46.4039 80.7392 46.4078 80.7622 46.2855L80.9136 45.4444C80.9236 45.3639 80.8897 45.3142 80.7811 45.3142H79.4851C79.4921 45.2853 79.5508 44.83 79.6993 44.4015C79.763 44.2195 79.8826 44.0714 79.9832 43.9699C80.0828 43.8706 80.1974 43.8 80.3229 43.7592C80.4514 43.7174 80.5979 43.6976 80.7583 43.6976C80.8797 43.6976 81.0003 43.7116 81.0909 43.7303C81.2164 43.7572 81.2652 43.7711 81.2981 43.7811C81.4306 43.8209 81.4486 43.782 81.4745 43.7184L81.7842 42.8693C81.8161 42.778 81.7374 42.7392 81.7095 42.7282Z" fill="white"/>
<path d="M63.6039 51.4773C63.6039 51.5449 63.555 51.5995 63.4874 51.5995H62.4124C62.3448 51.5995 62.2969 51.5449 62.2969 51.4773V42.8435C62.2969 42.776 62.3448 42.7212 62.4124 42.7212H63.4874C63.555 42.7212 63.6039 42.776 63.6039 42.8435V51.4773Z" fill="white"/>
</g>
<defs>
<clipPath id="clip0_3010_587">
<rect width="70" height="49.1228" fill="white" transform="translate(40 25.5)"/>
</clipPath>
</defs>
</svg>
