<svg width="150" height="100" viewBox="0 0 150 100" fill="none" xmlns="http://www.w3.org/2000/svg">
<rect width="150" height="100" fill="white"/>
<g clip-path="url(#clip0_3010_638)">
<path d="M54.7068 59.2345C54.7068 63.2817 51.4007 66.5879 47.3534 66.5879C43.3062 66.5879 40 63.2817 40 59.2345C40 55.1873 43.3062 51.8811 47.3534 51.8811H54.7068V59.2345Z" fill="#E01E5A"/>
<path d="M58.4116 59.2345C58.4116 55.1873 61.7178 51.8811 65.765 51.8811C69.8123 51.8811 73.1185 55.1873 73.1185 59.2345V77.6466C73.1185 81.6938 69.8123 85 65.765 85C61.7178 85 58.4116 81.6938 58.4116 77.6466V59.2345Z" fill="#E01E5A"/>
<path d="M65.765 29.7068C61.7178 29.7068 58.4116 26.4007 58.4116 22.3534C58.4116 18.3062 61.7178 15 65.765 15C69.8123 15 73.1185 18.3062 73.1185 22.3534V29.7068H65.765Z" fill="#36C5F0"/>
<path d="M65.7655 33.4121C69.8127 33.4121 73.1189 36.7183 73.1189 40.7655C73.1189 44.8128 69.8127 48.1189 65.7655 48.1189H47.3534C43.3062 48.1189 40 44.8128 40 40.7655C40 36.7183 43.3062 33.4121 47.3534 33.4121H65.7655Z" fill="#36C5F0"/>
<path d="M95.2925 40.7655C95.2925 36.7183 98.5987 33.4121 102.646 33.4121C106.693 33.4121 109.999 36.7183 109.999 40.7655C109.999 44.8128 106.693 48.1189 102.646 48.1189H95.2925V40.7655Z" fill="#2EB67D"/>
<path d="M91.5877 40.7655C91.5877 44.8127 88.2815 48.1189 84.2343 48.1189C80.187 48.1189 76.8809 44.8127 76.8809 40.7655V22.3534C76.8809 18.3062 80.187 15 84.2343 15C88.2815 15 91.5877 18.3062 91.5877 22.3534V40.7655Z" fill="#2EB67D"/>
<path d="M84.2343 70.2935C88.2815 70.2935 91.5877 73.5996 91.5877 77.6469C91.5877 81.6941 88.2815 85.0003 84.2343 85.0003C80.187 85.0003 76.8809 81.6941 76.8809 77.6469V70.2935H84.2343Z" fill="#ECB22E"/>
<path d="M84.2343 66.5879C80.187 66.5879 76.8809 63.2817 76.8809 59.2345C76.8809 55.1873 80.187 51.8811 84.2343 51.8811H102.646C106.694 51.8811 110 55.1873 110 59.2345C110 63.2817 106.694 66.5879 102.646 66.5879H84.2343Z" fill="#ECB22E"/>
</g>
<defs>
<clipPath id="clip0_3010_638">
<rect width="70" height="70" fill="white" transform="translate(40 15)"/>
</clipPath>
</defs>
</svg>
