<svg width="150" height="100" viewBox="0 0 150 100" fill="none" xmlns="http://www.w3.org/2000/svg">
<rect width="150" height="100" fill="white"/>
<g clip-path="url(#clip0_3010_640)">
<path d="M73.2766 60.502H76.7244V51.0991H85.396V47.7558H76.7244V38.3528H73.2766V47.7558H64.7095V51.0991H73.2766V60.502Z" fill="#E8762D"/>
<path d="M57.2914 74.0842H60.2168V65.726H67.9481V63.1141H60.2168V54.6514H57.2914V63.1141H49.5601V65.726H57.2914V74.0842Z" fill="#C72037"/>
<path d="M89.7836 43.8901H92.709V35.5319H100.545V33.0245H92.709V24.5618H89.7836V33.0245H82.0522V35.5319H89.7836V43.8901Z" fill="#5B879B"/>
<path d="M73.7981 80.6662H76.3056V74.711H81.6339V72.517H76.3056V66.5618H73.7981V72.517H68.5742V74.711H73.7981V80.6662Z" fill="#5C6692"/>
<path d="M57.3959 43.8901H60.1123V35.4274H67.9481V33.0245H60.1123V24.5618H57.3959V33.0245H49.5601V35.4274H57.3959V43.8901Z" fill="#EB9129"/>
<path d="M98.6638 56.4275H101.171V50.5767H106.5V48.2782H101.171V42.4275H98.6638V48.2782H93.4399V50.5767H98.6638V56.4275Z" fill="#5C6692"/>
<path fill-rule="evenodd" clip-rule="evenodd" d="M89.7836 74.0842H92.709V65.726H100.545V63.1141H92.709V54.6514H89.7836V63.1141H82.0522V65.726H89.7836V74.0842Z" fill="#1F457E"/>
<path d="M81.2164 26.0246V24.2485H75.9925V18.5022H74.1119V24.2485H68.8881V26.0246H74.1119V31.7709H75.9925V26.0246H81.2164ZM48.7239 56.0097H50.6045V50.2634H55.8284V48.4873H50.6045V42.8455H48.7239V48.4873H43.5V50.3679L48.7239 50.2634V56.0097Z" fill="#7199A6"/>
</g>
<defs>
<clipPath id="clip0_3010_640">
<rect width="63" height="62.1684" fill="white" transform="translate(43.5 18.5)"/>
</clipPath>
</defs>
</svg>
