<svg width="150" height="100" viewBox="0 0 150 100" fill="none" xmlns="http://www.w3.org/2000/svg">
<rect width="150" height="100" fill="white"/>
<path d="M72.3332 36.0705V75.2803H40L72.3332 36.0705ZM72.3332 22C72.3332 26.3067 70.63 30.437 67.5981 33.4823C64.5663 36.5276 60.4543 38.2384 56.1666 38.2384C51.879 38.2384 47.7669 36.5276 44.7351 33.4823C41.7033 30.437 40 26.3067 40 22L72.3332 22ZM77.6599 75.2838C77.6599 70.9771 79.3631 66.8468 82.3949 63.8015C85.4268 60.7562 89.5388 59.0454 93.8265 59.0454C98.1141 59.0454 102.226 60.7562 105.258 63.8015C108.29 66.8468 109.993 70.9771 109.993 75.2838H77.6599ZM77.6599 61.2133V22H110L77.6599 61.2098V61.2133Z" fill="#03363D"/>
</svg>
