<svg width="18" height="18" viewBox="0 0 16 16" xmlns="http://www.w3.org/2000/svg" role="graphics-symbol" aria-labelledby="asana-intelligence-icon-title-id" aria-hidden="true" fill="var(--lightmode-icon)" style="fill:var(--lightmode-icon)"><title id="asana-intelligence-icon-title-id">asana-intelligence icon</title><path d="M11.082 0.0429688H12.668V0.496094C12.668 1.00684 12.8709 1.49667 13.232 1.85783C13.5932 2.21898 14.083 2.42187 14.5937 2.42187H15.0469V4.00781H14.5937C14.083 4.00781 13.5932 4.21071 13.232 4.57186C12.8709 4.93301 12.668 5.42284 12.668 5.93359V6.38672H11.082V5.93359C11.082 5.42284 10.8791 4.93301 10.518 4.57186C10.1568 4.21071 9.667 4.00781 9.15625 4.00781H8.70312V2.42187H9.15625C9.667 2.42187 10.1568 2.21898 10.518 1.85783C10.8791 1.49667 11.082 1.00684 11.082 0.496094V0.0429688ZM11.875 1.28908C11.7429 1.74202 11.4984 2.15902 11.1588 2.49864C10.8192 2.83826 10.4022 3.08272 9.94923 3.21485C10.4022 3.34697 10.8192 3.59142 11.1588 3.93104C11.4984 4.27067 11.7429 4.68767 11.875 5.14061C12.0071 4.68767 12.2516 4.27067 12.5912 3.93104C12.9308 3.59142 13.3478 3.34697 13.8008 3.21485C13.3478 3.08272 12.9308 2.83826 12.5912 2.49864C12.2516 2.15902 12.0071 1.74202 11.875 1.28908ZM3.71875 2.76172H5.53125V3.21484C5.53125 4.1524 5.79037 4.81557 6.21982 5.24502C6.64927 5.67447 7.31244 5.93359 8.25 5.93359H8.70312V7.74609H8.25C7.31244 7.74609 6.64927 8.00522 6.21982 8.43466C5.79037 8.86411 5.53125 9.52729 5.53125 10.4648V10.918H3.71875V10.4648C3.71875 9.52996 3.45478 8.86624 3.02161 8.43561C2.58798 8.00452 1.92354 7.74609 1 7.74609H0.546875V5.93359H1C1.93756 5.93359 2.60073 5.67447 3.03018 5.24502C3.45963 4.81557 3.71875 4.1524 3.71875 3.21484V2.76172ZM4.60674 3.66797C4.53202 4.57003 4.22691 5.32992 3.67099 5.88584C3.11507 6.44176 2.35518 6.74686 1.45312 6.82158V6.85849C2.34592 6.93393 3.10362 7.23926 3.66054 7.79291C4.2189 8.34801 4.53014 9.10769 4.60639 10.0117H4.64326C4.71798 9.10966 5.02309 8.34977 5.57901 7.79385C6.13493 7.23793 6.89482 6.93282 7.79687 6.85811V6.82158C6.89482 6.74686 6.13493 6.44176 5.57901 5.88584C5.02309 5.32992 4.71798 4.57003 4.64326 3.66797H4.60674ZM9.26953 9.10547H10.8555V9.55859C10.8555 10.0693 11.0584 10.5592 11.4195 10.9203C11.7807 11.2815 12.2705 11.4844 12.7812 11.4844H13.2344V13.0703H12.7812C12.2705 13.0703 11.7807 13.2732 11.4195 13.6344C11.0584 13.9955 10.8555 14.4853 10.8555 14.9961V15.4492H9.26953V14.9961C9.26953 14.4853 9.06664 13.9955 8.70548 13.6344C8.34433 13.2732 7.8545 13.0703 7.34375 13.0703H6.89062V11.4844H7.34375C7.8545 11.4844 8.34433 11.2815 8.70548 10.9203C9.06664 10.5592 9.26953 10.0693 9.26953 9.55859V9.10547ZM10.0625 10.3516C9.93038 10.8045 9.68592 11.2215 9.3463 11.5611C9.00668 11.9008 8.58968 12.1452 8.13673 12.2773C8.58968 12.4095 9.00668 12.6539 9.3463 12.9935C9.68592 13.3332 9.93038 13.7502 10.0625 14.2031C10.1946 13.7502 10.4391 13.3332 10.7787 12.9935C11.1183 12.6539 11.5353 12.4095 11.9883 12.2773C11.5353 12.1452 11.1183 11.9008 10.7787 11.5611C10.4391 11.2215 10.1946 10.8045 10.0625 10.3516Z"></path></svg>