<svg width="150" height="100" viewBox="0 0 150 100" fill="none" xmlns="http://www.w3.org/2000/svg">
<rect width="150" height="100" fill="white"/>
<path d="M64.2085 81.5002C69.8435 81.5002 74.4169 76.9268 74.4169 71.2917L74.4169 61.0833L64.2085 61.0833C58.5734 61.0833 54 65.6567 54 71.2917C54 76.9268 58.5734 81.5002 64.2085 81.5002Z" fill="#0ACF83"/>
<path d="M54 50.8747C54 45.2397 58.5734 40.6663 64.2085 40.6663L74.4169 40.6663L74.4169 61.0828L64.2085 61.0828C58.5734 61.083 54 56.5096 54 50.8747Z" fill="#A259FF"/>
<path d="M54 30.4584C54 24.8234 58.5734 20.25 64.2085 20.25L74.4169 20.25L74.4169 40.6666L64.2085 40.6666C58.5734 40.6666 54 36.0934 54 30.4584Z" fill="#F24E1E"/>
<path d="M74.4165 20.25L84.625 20.25C90.26 20.25 94.8334 24.8234 94.8334 30.4584C94.8334 36.0934 90.26 40.6666 84.625 40.6666L74.4165 40.6666L74.4165 20.25Z" fill="#FF7262"/>
<path d="M94.8334 50.8749C94.8334 56.5099 90.26 61.0833 84.625 61.0833C78.9899 61.0833 74.4165 56.5099 74.4165 50.8749C74.4165 45.2399 78.9899 40.6665 84.625 40.6665C90.26 40.6665 94.8334 45.2399 94.8334 50.8749Z" fill="#1ABCFE"/>
</svg>
