<svg width="41" height="41" viewBox="0 0 41 41" fill="none" xmlns="http://www.w3.org/2000/svg">
<path d="M19.9744 16.0252C19.9744 18.2918 18.1077 20.1585 15.8411 20.1585C13.5744 20.1585 11.7077 18.2918 11.7077 16.0252C11.7077 13.7585 13.5744 11.8918 15.8411 11.8918C18.1077 11.8918 19.9744 13.7585 19.9744 16.0252ZM15.8411 21.7585C13.5744 21.7585 11.7077 23.6252 11.7077 25.8918C11.7077 28.1585 13.5744 30.0252 15.8411 30.0252C18.1077 30.0252 19.9744 28.1585 19.9744 25.8918C19.9744 23.6252 18.1077 21.7585 15.8411 21.7585ZM40.7744 20.9585C40.7744 32.0252 31.8411 40.9585 20.7744 40.9585C9.70775 40.9585 0.774414 32.0252 0.774414 20.9585C0.774414 9.89183 9.70775 0.958496 20.7744 0.958496C31.8411 0.958496 40.7744 9.89183 40.7744 20.9585ZM35.4411 20.9585C35.4411 12.8252 28.9077 6.29183 20.7744 6.29183C12.6411 6.29183 6.10775 12.8252 6.10775 20.9585C6.10775 29.0918 12.6411 35.6252 20.7744 35.6252C28.9077 35.6252 35.4411 29.0918 35.4411 20.9585ZM25.7077 21.7585C23.4411 21.7585 21.5744 23.6252 21.5744 25.8918C21.5744 28.1585 23.4411 30.0252 25.7077 30.0252C27.9744 30.0252 29.8411 28.1585 29.8411 25.8918C29.8411 23.6252 27.9744 21.7585 25.7077 21.7585ZM25.7077 11.8918C23.4411 11.8918 21.5744 13.7585 21.5744 16.0252C21.5744 18.2918 23.4411 20.1585 25.7077 20.1585C27.9744 20.1585 29.8411 18.2918 29.8411 16.0252C29.8411 13.7585 27.9744 11.8918 25.7077 11.8918Z" fill="#F22F46"/>
</svg>
