<svg width="150" height="100" viewBox="0 0 150 100" fill="none" xmlns="http://www.w3.org/2000/svg">
<rect width="150" height="100" fill="white"/>
<path fill-rule="evenodd" clip-rule="evenodd" d="M76.91 20.4028L75.717 35.0961C75.1527 35.0317 74.5885 34.9994 74.0081 34.9994C73.2826 34.9994 72.5732 35.0478 71.88 35.1606L71.2028 28.0394C71.1867 27.8139 71.364 27.6206 71.5898 27.6206H72.7989L72.2185 20.4189C72.2024 20.1933 72.3797 20 72.5893 20H76.5392C76.7649 20 76.9423 20.1933 76.91 20.4189V20.4028ZM66.9466 21.1278C66.8821 20.9183 66.6564 20.7894 66.4468 20.87L62.7387 22.2233C62.5292 22.3039 62.4324 22.5456 62.5292 22.7389L65.544 29.3122L64.3993 29.7311C64.1897 29.8117 64.093 30.0533 64.1897 30.2467L67.269 36.7072C68.3815 36.095 69.5906 35.6278 70.8643 35.3378L66.9627 21.1278H66.9466ZM57.8538 25.22L66.3823 37.2389C65.3021 37.9478 64.3187 38.7856 63.4804 39.7522L58.3697 34.7256C58.2084 34.5644 58.2246 34.3067 58.3858 34.1617L59.3209 33.3883L54.2424 28.2489C54.0812 28.0878 54.0973 27.83 54.2747 27.685L57.2895 25.1556C57.4668 25.0106 57.7087 25.0428 57.8376 25.22H57.8538ZM50.6956 32.18C50.5182 32.0511 50.2603 32.1156 50.1474 32.3089L48.1805 35.7244C48.0677 35.9178 48.1483 36.1594 48.3417 36.2561L54.8873 39.3494L54.2747 40.3967C54.1618 40.59 54.2424 40.8478 54.452 40.9283L60.9653 43.9089C61.4329 42.7006 62.0616 41.5728 62.8355 40.5578L50.6956 32.18ZM45.8751 41.46C45.9073 41.2344 46.133 41.1056 46.3426 41.1539L60.6106 44.8756C60.2398 46.0839 60.0302 47.3567 59.998 48.6778L52.8559 48.0978C52.6302 48.0817 52.469 47.8722 52.5174 47.6467L52.7269 46.4544L45.5204 45.7778C45.2947 45.7617 45.1496 45.5522 45.1818 45.3267L45.8589 41.4439L45.8751 41.46ZM45.343 51.0944C45.1173 51.1106 44.9722 51.32 45.0045 51.5456L45.6977 55.4283C45.73 55.6539 45.9557 55.7828 46.1653 55.7344L53.1622 53.9139L53.3718 55.1061C53.4041 55.3317 53.6298 55.4606 53.8394 55.4122L60.7396 53.5111C60.3366 52.3189 60.0786 51.0461 60.0141 49.7411L45.3269 51.0944H45.343ZM47.6324 61.3089C47.5195 61.1156 47.6001 60.8739 47.7936 60.7772L61.1104 54.4617C61.6102 55.6539 62.2873 56.7656 63.0934 57.7644L57.2572 61.9211C57.0799 62.05 56.8219 62.0017 56.7091 61.8083L56.0965 60.745L50.1474 64.8533C49.9701 64.9822 49.7121 64.9178 49.5993 64.7244L47.6162 61.3089H47.6324ZM63.7706 58.5378L53.4041 69.0261C53.2428 69.1872 53.259 69.445 53.4363 69.59L56.4673 72.1194C56.6446 72.2645 56.8864 72.2322 57.0154 72.055L61.2071 66.1583L62.1422 66.9478C62.3196 67.0928 62.5775 67.0606 62.7065 66.8672L66.7693 60.9706C65.673 60.2939 64.6573 59.4722 63.7867 58.5378H63.7706ZM61.7231 75.3739C61.5135 75.2933 61.4167 75.0517 61.5135 74.8583L67.656 61.4539C68.7845 62.0339 70.0098 62.4689 71.2834 62.7106L69.4778 69.6383C69.4294 69.8478 69.1876 69.9767 68.978 69.8961L67.8333 69.4772L65.9148 76.4533C65.8503 76.6628 65.6246 76.7917 65.415 76.7111L61.7069 75.3578L61.7231 75.3739ZM72.2991 62.8878L71.1061 77.5811C71.09 77.8067 71.2673 78 71.4769 78H75.4268C75.6525 78 75.8299 77.8067 75.7976 77.5811L75.2172 70.3794H76.4264C76.6521 70.3794 76.8294 70.1861 76.8133 69.9606L76.1362 62.8394C75.4429 62.9522 74.7336 63.0006 74.0081 63.0006C73.4277 63.0006 72.8634 62.9683 72.2991 62.8878ZM86.5188 23.1094C86.6155 22.9 86.5188 22.6744 86.3092 22.5939L82.6011 21.2406C82.3915 21.16 82.1658 21.2889 82.1013 21.4983L80.1828 28.4744L79.0381 28.0556C78.8286 27.975 78.6029 28.1039 78.5384 28.3133L76.7327 35.2411C78.0225 35.4989 79.2316 35.9339 80.3602 36.4978L86.5188 23.1094ZM94.6121 28.9578L84.2456 39.4461C83.375 38.5117 82.3754 37.69 81.263 37.0133L85.3258 31.1167C85.4547 30.9394 85.7127 30.8911 85.89 31.0361L86.8251 31.8256L91.0168 25.9289C91.1458 25.7517 91.4038 25.7194 91.565 25.8644L94.5959 28.3939C94.7733 28.5389 94.7733 28.7967 94.6282 28.9578H94.6121ZM100.223 37.2067C100.432 37.11 100.497 36.8683 100.384 36.675L98.4007 33.2594C98.2879 33.0661 98.0299 33.0178 97.8526 33.1306L91.9036 37.2389L91.2909 36.1917C91.1781 35.9983 90.9201 35.9339 90.7428 36.0789L84.9066 40.2356C85.7127 41.2344 86.3737 42.3461 86.8896 43.5383L100.206 37.2228L100.223 37.2067ZM102.318 42.5556L102.996 46.4383C103.028 46.6639 102.883 46.8572 102.657 46.8894L87.9698 48.2589C87.9053 46.9378 87.6473 45.6811 87.2443 44.4889L94.1445 42.5878C94.3541 42.5233 94.5798 42.6683 94.6121 42.8939L94.8216 44.0861L101.819 42.2656C102.028 42.2172 102.254 42.3461 102.286 42.5717L102.318 42.5556ZM101.657 56.8139C101.867 56.8622 102.093 56.7333 102.125 56.5078L102.802 52.625C102.834 52.3994 102.689 52.2061 102.464 52.1739L95.2569 51.4972L95.4665 50.305C95.4988 50.0794 95.3537 49.8861 95.128 49.8539L87.9859 49.2739C87.9536 50.595 87.7441 51.8678 87.3733 53.0761L101.641 56.7978L101.657 56.8139ZM97.8526 65.675C97.7397 65.8683 97.4818 65.9167 97.3044 65.8039L85.1645 57.4261C85.9384 56.4111 86.5672 55.2833 87.0347 54.075L93.548 57.0556C93.7576 57.1522 93.8382 57.3939 93.7253 57.5872L93.1127 58.6344L99.6583 61.7278C99.8517 61.8244 99.9323 62.0661 99.8195 62.2594L97.8526 65.675ZM81.6177 60.7289L90.1462 72.7478C90.2752 72.925 90.5332 72.9572 90.6944 72.8122L93.7092 70.2828C93.8866 70.1378 93.8866 69.88 93.7415 69.7189L88.663 64.5794L89.5981 63.8061C89.7754 63.6611 89.7754 63.4033 89.6142 63.2422L84.5035 58.2156C83.6491 59.1822 82.6817 60.0361 81.6016 60.7289H81.6177ZM81.5371 77.0978C81.3275 77.1783 81.1018 77.0494 81.0373 76.84L77.1357 62.63C78.4094 62.34 79.6185 61.8728 80.731 61.2606L83.8103 67.7211C83.907 67.9306 83.8103 68.1722 83.6007 68.2367L82.456 68.6556L85.4709 75.2289C85.5676 75.4383 85.4708 75.6639 85.2613 75.7444L81.5532 77.0978H81.5371Z" fill="black"/>
</svg>
