<svg width="150" height="100" viewBox="0 0 150 100" fill="none" xmlns="http://www.w3.org/2000/svg">
<rect width="150" height="100" fill="white"/>
<path fill-rule="evenodd" clip-rule="evenodd" d="M75.1417 20.25C56.1539 20.25 40.2834 35.8824 40 55.2097C40 65.4418 44.251 74.5371 51.0527 81.0743C53.6033 83.3481 57.2875 83.6323 60.1215 81.6427C64.0891 78.5162 69.1903 76.8109 75.1417 76.8109C81.0931 76.8109 86.1943 78.8005 90.162 81.6427C92.996 83.6323 96.6802 83.6323 99.2308 81.0743C106.032 74.5371 110 65.7261 110 55.494C110 36.1666 94.413 20.25 75.1417 20.25ZM75.1417 72.8317C64.6559 72.8317 57.5709 64.8734 57.5709 55.2097C57.5709 45.5461 64.6559 37.5878 75.1417 37.5878C85.6275 37.5878 92.7125 45.5461 92.7125 55.2097C92.4291 65.1576 85.3441 72.8317 75.1417 72.8317Z" fill="#81B5A1"/>
</svg>
