<svg width="150" height="100" viewBox="0 0 150 100" fill="none" xmlns="http://www.w3.org/2000/svg">
<rect width="150" height="100" fill="white"/>
<path d="M110 78C110 81.8675 106.868 85 103 85H47C43.1325 85 40 81.8675 40 78V22C40 18.1325 43.1325 15 47 15H103C106.868 15 110 18.1325 110 22V78Z" fill="#1AB7EA"/>
<path d="M98.8988 38.2459C98.6713 43.1692 95.2354 49.9125 88.5796 58.47C81.7079 67.4067 75.8863 71.875 71.1263 71.875C68.1746 71.875 65.6838 69.1567 63.6421 63.7084C62.2829 58.7209 60.9238 53.7275 59.5588 48.74C58.0421 43.2975 56.4204 40.5734 54.6821 40.5734C54.3029 40.5734 52.9788 41.3725 50.7096 42.9534L48.3296 39.8909C50.8263 37.6975 53.2879 35.5042 55.7088 33.3109C59.0396 30.435 61.5421 28.9242 63.2046 28.7667C67.1421 28.3875 69.5629 31.0767 70.4729 36.84C71.4588 43.0525 72.1354 46.92 72.5204 48.4309C73.6579 53.5875 74.9063 56.16 76.2713 56.16C77.3271 56.16 78.9196 54.4859 81.0429 51.1434C83.1604 47.8009 84.2921 45.2575 84.4496 43.5075C84.7529 40.62 83.6154 39.1734 81.0429 39.1734C79.8296 39.1734 78.5813 39.4534 77.2979 40.0017C79.7829 31.8584 84.5371 27.9034 91.5429 28.1309C96.7521 28.2884 99.2021 31.66 98.8988 38.2459Z" fill="white"/>
</svg>
