<svg width="18" height="18" viewBox="0 0 16 16" xmlns="http://www.w3.org/2000/svg" role="graphics-symbol" aria-labelledby="my-task-icon-title-id" aria-hidden="true" fill="var(--lightmode-icon)" style="fill:var(--lightmode-icon)"><title id="my-task-icon-title-id">my-task icon</title><path d="M7.975 8.5c2.2 0 4-1.8 4-4s-1.8-4-4-4-4 1.8-4 4 1.8 4 4 4Zm0-7c1.65 0 3 1.35 3 3s-1.35 3-3 3-3-1.35-3-3 1.35-3 3-3Zm6.5 10.9c-.3 0-.5.2-.5.5V15c0 .3.2.5.5.5s.5-.2.5-.5v-2.1c0-.3-.2-.5-.5-.5Zm-2.4-2.4c0-.3-.2-.5-.5-.5h-7.2c-1.9 0-3.4 1.5-3.4 3.4V15c0 .3.2.5.5.5s.5-.2.5-.5v-2.1c0-1.3 1.1-2.4 2.4-2.4h7.2c.3 0 .5-.2.5-.5Zm2.8-.4c-.2-.2-.5-.2-.7 0l-4.05 4.05-1.35-1.35c-.2-.2-.5-.2-.7 0-.2.2-.2.5 0 .7l1.7 1.7c.1.1.2.15.35.15.15 0 .25-.05.35-.15l4.4-4.4c.2-.2.2-.5 0-.7Z"></path></svg>