<svg width="10" height="10" viewBox="0 0 16 16" xmlns="http://www.w3.org/2000/svg" role="graphics-symbol" aria-labelledby="briefcase-icon-title-id" aria-hidden="true" fill="rgb(93, 162, 131)" style="fill:rgb(93, 162, 131)"><title id="briefcase-icon-title-id">briefcase icon</title><path d="M4 13.5V5.5H5V13.5H11V5.5H12V13.5H13C13.5523 13.5 14 13.0523 14 12.5V6.5C14 5.94772 13.5523 5.5 13 5.5H11H5H3C2.44772 5.5 2 5.94772 2 6.5V12.5C2 13.0523 2.44772 13.5 3 13.5H4ZM5 4.5V3.5C5 2.39543 5.89543 1.5 7 1.5H9C10.1046 1.5 11 2.39543 11 3.5V4.5H13C14.1046 4.5 15 5.39543 15 6.5V12.5C15 13.6046 14.1046 14.5 13 14.5H3C1.89543 14.5 1 13.6046 1 12.5V6.5C1 5.39543 1.89543 4.5 3 4.5H5ZM6 4.5H10V3.5C10 2.94772 9.55229 2.5 9 2.5H7C6.44772 2.5 6 2.94772 6 3.5V4.5Z"></path></svg>