<svg width="18" height="18" viewBox="0 0 16 16" xmlns="http://www.w3.org/2000/svg" role="graphics-symbol" aria-labelledby="goal-icon-title-id" aria-hidden="true" fill="var(--lightmode-icon)" style="fill:var(--lightmode-icon)"><title id="goal-icon-title-id">goal icon</title><path d="M14.8417 13.2322L11.7917 8.53223C12.5417 7.68223 12.9917 6.53223 12.9917 5.28223C12.9917 2.53223 10.7417 0.282227 7.99167 0.282227C5.24167 0.332227 2.99167 2.58223 2.99167 5.33223C2.99167 6.58223 3.44167 7.68223 4.19167 8.58223L1.14167 13.2822C0.741673 13.8822 0.691673 14.6822 1.04167 15.3322C1.39167 15.9822 2.04167 16.3822 2.79167 16.3822H13.1917C13.9417 16.3822 14.5917 15.9822 14.9417 15.3322C15.2917 14.6322 15.2917 13.8822 14.8417 13.2322ZM3.99167 5.33223C3.99167 3.13223 5.79167 1.33223 7.99167 1.33223C10.1917 1.33223 11.9917 3.13223 11.9917 5.33223C11.9917 6.23223 11.6917 7.03223 11.2417 7.68223L9.69167 5.28223C9.34167 4.73223 8.69167 4.38223 8.04167 4.38223C7.34167 4.38223 6.74167 4.73223 6.39167 5.28223L4.84167 7.68223C4.29167 7.03223 3.99167 6.23223 3.99167 5.33223ZM10.5417 8.43223C9.84167 8.98223 8.94167 9.33223 7.99167 9.33223C7.04167 9.33223 6.14167 8.98223 5.44167 8.43223L7.14167 5.83223C7.34167 5.53223 7.64167 5.38223 7.99167 5.38223C8.34167 5.38223 8.64167 5.53223 8.84167 5.83223L10.5417 8.43223ZM14.0917 14.8322C13.8917 15.1822 13.5917 15.3322 13.1917 15.3322H2.79167C2.44167 15.3322 2.09167 15.1322 1.89167 14.8322C1.69167 14.4822 1.74167 14.1322 1.94167 13.8322L4.89167 9.33223C5.74167 9.98223 6.79167 10.3822 7.99167 10.3822C9.14167 10.3822 10.2417 9.98223 11.0917 9.33223L14.0417 13.8322C14.2417 14.0822 14.2417 14.4822 14.0917 14.8322Z"></path></svg>