<svg width="15" height="15" viewBox="0 0 16 16" xmlns="http://www.w3.org/2000/svg" role="graphics-symbol" aria-labelledby="project-icon-title-id" aria-hidden="true" fill="var(--lightmode-icon)" style="fill:var(--lightmode-icon)">
    <title id="project-icon-title-id">project icon</title>
    <path d="M5 6.75C5.4 6.75 5.75 7.1 5.75 7.5C5.75 7.9 5.4 8.25 5 8.25C4.6 8.25 4.25 7.9 4.25 7.5C4.25 7.1 4.6 6.75 5 6.75ZM11.5 7H7.5C7.2 7 7 7.2 7 7.5C7 7.8 7.2 8 7.5 8H11.5C11.8 8 12 7.8 12 7.5C12 7.2 11.8 7 11.5 7ZM11.5 10H7.5C7.2 10 7 10.2 7 10.5C7 10.8 7.2 11 7.5 11H11.5C11.8 11 12 10.8 12 10.5C12 10.2 11.8 10 11.5 10ZM5 9.75C5.4 9.75 5.75 10.1 5.75 10.5C5.75 10.9 5.4 11.25 5 11.25C4.6 11.25 4.25 10.9 4.25 10.5C4.25 10.1 4.6 9.75 5 9.75ZM12 1H10.9C10.7 0.4 10.15 0 9.5 0H6.5C5.85 0 5.3 0.4 5.1 1H4C2.35 1 1 2.35 1 4V13C1 14.65 2.35 16 4 16H12C13.65 16 15 14.65 15 13V4C15 2.35 13.65 1 12 1ZM6.5 1H9.5C9.8 1 10 1.2 10 1.5V2.5C10 2.8 9.8 3 9.5 3H6.5C6.2 3 6 2.8 6 2.5V1.5C6 1.2 6.2 1 6.5 1ZM14 13C14 14.1 13.1 15 12 15H4C2.9 15 2 14.1 2 13V4C2 2.9 2.9 2 4 2H5V2.5C5 3.35 5.65 4 6.5 4H9.5C10.35 4 11 3.35 11 2.5V2H12C13.1 2 14 2.9 14 4V13Z"></path>
</svg>
