<svg width="18" height="18" viewBox="0 0 16 16" xmlns="http://www.w3.org/2000/svg" role="graphics-symbol" aria-labelledby="portfolio-icon-title-id" aria-hidden="true" fill="var(--lightmode-icon)" style="fill:var(--lightmode-icon)"><title id="portfolio-icon-title-id">portfolio icon</title><path fill-rule="evenodd" d="M14.5 4c.85 0 1.5.65 1.5 1.5v7c0 1.4-1.1 2.5-2.5 2.5h-11C1.1 15 0 13.9 0 12.5v-10C0 1.65.65 1 1.5 1h4.6c.2 0 .35.1.45.25L7.6 3.2c.25.5.75.8 1.3.8h5.6Zm.5 1.5v7c0 .85-.65 1.5-1.5 1.5h-11c-.85 0-1.5-.65-1.5-1.5V5h13.5c.3 0 .5.2.5.5ZM6.9 4c-.1-.1-.15-.2-.2-.3L5.8 2H1.5c-.3 0-.5.2-.5.5V4h5.9Z" clip-rule="evenodd"></path></svg>