<svg width="18" height="18" viewBox="0 0 16 16" xmlns="http://www.w3.org/2000/svg" role="graphics-symbol" aria-labelledby="premium-icon-title-id" aria-hidden="true" fill="rgb(147, 140, 225)" style="fill:rgb(147, 140, 225)"><title id="premium-icon-title-id">premium icon</title><path d="M13.5 6.48755C13.5 3.43755 11.05 0.987549 8 0.987549C4.95 0.987549 2.5 3.43755 2.5 6.48755C2.5 7.93755 3.05 9.28755 4 10.2375V16.4875C4 16.6875 4.1 16.8375 4.25 16.9375C4.4 17.0375 4.6 17.0375 4.75 16.9375L8 15.0875L11.25 16.9375C11.35 16.9875 11.4 16.9875 11.5 16.9875C11.6 16.9875 11.65 16.9875 11.75 16.9375C11.9 16.8375 12 16.6875 12 16.4875V10.2375C12.95 9.28755 13.5 7.93755 13.5 6.48755ZM8 1.98755C10.5 1.98755 12.5 3.98755 12.5 6.48755C12.5 8.98755 10.5 10.9875 8 10.9875C5.5 10.9875 3.5 8.98755 3.5 6.48755C3.5 3.98755 5.5 1.98755 8 1.98755ZM8.25 14.0375C8.1 13.9375 7.9 13.9375 7.75 14.0375L5 15.6375V11.0875C5.85 11.6375 6.9 11.9875 8 11.9875C9.1 11.9875 10.15 11.6375 11 11.0875V15.6375L8.25 14.0375Z"></path></svg>