<svg width="18" height="18" viewBox="0 0 16 16" xmlns="http://www.w3.org/2000/svg" role="graphics-symbol" aria-labelledby="workflow-icon-title-id" aria-hidden="true" fill="var(--lightmode-icon)" style="fill:var(--lightmode-icon)"><title id="workflow-icon-title-id">workflow icon</title><path d="M11.625 5.87256H13.625C14.45 5.87256 15.125 5.19756 15.125 4.37256V2.37256C15.125 1.54756 14.45 0.872559 13.625 0.872559H11.625C10.8 0.872559 10.125 1.54756 10.125 2.37256V2.87256H6.325C6.09 1.59256 4.97 0.622559 3.625 0.622559C2.11 0.622559 0.875 1.85756 0.875 3.37256C0.875 4.71756 1.845 5.83756 3.125 6.07256V9.87256H2.625C1.8 9.87256 1.125 10.5476 1.125 11.3726V13.3726C1.125 14.1976 1.8 14.8726 2.625 14.8726H4.625C5.45 14.8726 6.125 14.1976 6.125 13.3726V12.8726H13.425L11.77 14.5276C11.575 14.7226 11.575 15.0376 11.77 15.2326C11.87 15.3326 11.995 15.3776 12.125 15.3776C12.255 15.3776 12.38 15.3276 12.48 15.2326L14.98 12.7326C15.08 12.6326 15.125 12.5026 15.125 12.3776C15.125 12.3776 15.125 12.3776 15.125 12.3726C15.125 12.2226 15.055 12.0926 14.955 12.0026L12.47 9.51756C12.275 9.32256 11.96 9.32256 11.765 9.51756C11.57 9.71256 11.57 10.0276 11.765 10.2226L13.41 11.8726H6.125V11.3726C6.125 10.5476 5.45 9.87256 4.625 9.87256H4.125V6.07256C5.24 5.86756 6.12 4.98756 6.325 3.87256H10.125V4.37256C10.125 5.19756 10.8 5.87256 11.625 5.87256ZM11.125 2.37256C11.125 2.09756 11.35 1.87256 11.625 1.87256H13.625C13.9 1.87256 14.125 2.09756 14.125 2.37256V4.37256C14.125 4.64756 13.9 4.87256 13.625 4.87256H11.625C11.35 4.87256 11.125 4.64756 11.125 4.37256V2.37256ZM4.625 10.8726C4.9 10.8726 5.125 11.0976 5.125 11.3726V13.3726C5.125 13.6476 4.9 13.8726 4.625 13.8726H2.625C2.35 13.8726 2.125 13.6476 2.125 13.3726V11.3726C2.125 11.0976 2.35 10.8726 2.625 10.8726H4.625ZM3.625 5.12256C2.66 5.12256 1.875 4.33756 1.875 3.37256C1.875 2.40756 2.66 1.62256 3.625 1.62256C4.59 1.62256 5.375 2.40756 5.375 3.37256C5.375 4.33756 4.59 5.12256 3.625 5.12256Z"></path></svg>